<!DOCTYPE svg PUBLIC "-//W3C//DTD SVG 20010904//EN" "http://www.w3.org/TR/2001/REC-SVG-20010904/DTD/svg10.dtd">
<svg version="1.0" xmlns="http://www.w3.org/2000/svg" width="1138px" height="496px" viewBox="0 0 11380 4960" preserveAspectRatio="xMidYMid meet">
<g id="layer101" fill="#000000" stroke="none">
 <path d="M4920 4954 c-758 -49 -1298 -166 -1831 -395 l-118 -50 -310 96 c-323 99 -1002 300 -1035 307 -17 3 -26 -24 -87 -265 -37 -148 -69 -270 -71 -273 -14 -13 -652 218 -887 321 l-84 37 -58 -58 c-33 -32 -59 -62 -59 -67 0 -4 70 -107 156 -228 85 -122 153 -223 151 -226 -3 -2 -137 15 -298 37 l-294 41 -47 -53 c-26 -29 -48 -56 -48 -60 0 -13 206 -198 314 -282 252 -196 433 -276 786 -346 249 -50 618 -86 743 -73 l54 6 -33 -123 c-53 -194 -67 -315 -61 -525 6 -205 25 -309 87 -498 97 -290 276 -569 536 -837 675 -694 1823 -1213 3019 -1365 950 -121 1769 -90 2480 95 599 155 1075 416 1410 773 l92 99 247 -78 c135 -43 248 -75 251 -72 3 2 35 132 71 289 36 156 69 287 73 291 3 4 74 -8 156 -27 288 -66 458 -89 670 -89 173 0 198 2 286 26 53 14 119 38 148 53 44 22 52 30 48 48 -3 12 -11 47 -17 77 l-12 56 -232 89 c-127 49 -255 99 -283 110 l-53 21 259 149 259 148 -21 59 -21 58 -52 0 c-208 0 -834 118 -1255 237 l-166 46 -11 42 c-6 22 -34 95 -62 161 -299 708 -1114 1400 -2129 1806 -523 210 -1072 335 -1721 394 -163 14 -804 27 -940 18z m130 -186 c-341 -151 -679 -348 -913 -533 l-98 -77 -402 133 c-221 73 -405 136 -410 139 -10 8 221 91 392 141 370 108 1004 202 1391 207 55 1 61 -1 40 -10z m-3237 -24 c1225 -309 2765 -842 4852 -1679 319 -128 688 -271 820 -317 564 -201 1236 -408 2188 -676 213 -61 390 -111 392 -113 4 -5 -200 -917 -206 -924 -7 -6 -335 79 -629 164 -755 216 -2120 650 -2625 834 -82 30 -337 132 -565 227 -1839 765 -3326 1293 -4431 1575 l-146 37 32 132 c116 483 191 766 203 766 7 0 59 -12 115 -26z m3780 -101 c-27 -32 -71 -86 -97 -120 l-49 -62 -17 22 c-10 12 -34 52 -54 89 l-37 66 93 21 c128 28 181 39 196 40 8 1 -8 -25 -35 -56z m401 15 c-3 -18 -18 -136 -33 -261 -16 -126 -31 -231 -35 -234 -20 -21 -249 80 -321 141 l-40 34 90 92 c50 50 118 114 152 141 61 49 170 119 184 119 4 0 6 -15 3 -32z m373 -179 c28 -41 69 -109 92 -151 l42 -77 -24 -16 c-69 -45 -341 -114 -364 -92 -6 7 50 465 64 526 6 23 10 21 73 -46 37 -39 90 -104 117 -144z m-1086 69 c17 -35 47 -84 65 -111 19 -26 34 -52 34 -57 0 -6 -29 -52 -64 -103 -67 -97 -187 -294 -252 -413 l-39 -71 -392 146 c-216 80 -393 148 -393 151 0 3 54 43 119 89 227 161 475 289 741 383 74 26 138 47 142 47 4 1 22 -27 39 -61z m1380 -49 l79 -41 -41 -49 c-22 -27 -43 -49 -45 -49 -3 0 -14 20 -24 45 -11 25 -29 65 -40 90 -10 25 -17 45 -14 45 3 0 42 -19 85 -41z m646 -90 c439 -164 835 -356 1164 -565 215 -136 521 -377 502 -394 -12 -12 -224 -58 -370 -80 -114 -17 -399 -50 -437 -50 -8 0 -31 30 -52 67 -186 334 -532 724 -919 1038 -33 27 -51 45 -40 41 10 -4 79 -29 152 -57z m-6384 -43 c221 -81 450 -156 477 -156 9 0 19 -2 22 -5 3 -3 -18 -101 -48 -218 -29 -116 -52 -213 -50 -214 1 -2 117 -35 257 -74 140 -39 256 -73 258 -75 9 -9 -46 -75 -68 -81 -49 -12 -305 6 -426 31 -227 47 -495 145 -735 266 -120 62 -327 187 -318 195 2 1 127 -14 278 -35 151 -21 275 -37 276 -36 22 29 84 126 84 130 0 3 -49 82 -110 176 -60 93 -107 170 -104 170 3 0 96 -33 207 -74z m6122 -104 c61 -41 153 -109 205 -150 142 -113 412 -389 512 -522 103 -138 184 -268 174 -278 -10 -10 -669 -16 -842 -7 l-141 7 -18 101 c-36 207 -131 546 -217 770 l-30 77 69 74 68 73 55 -35 c30 -19 105 -68 165 -110z m-1325 -139 c30 -13 86 -33 124 -43 38 -11 70 -21 72 -22 5 -6 -70 -578 -76 -576 -4 2 -147 57 -318 123 -202 78 -312 125 -312 134 0 25 146 297 220 408 l72 109 82 -54 c44 -30 106 -65 136 -79z m859 -66 c61 -171 107 -362 141 -587 11 -69 20 -131 20 -138 0 -10 -16 -12 -67 -7 -495 42 -541 47 -596 67 -32 11 -60 24 -62 28 -4 6 73 612 79 617 1 1 40 7 87 12 113 13 200 36 284 75 39 18 73 30 76 27 4 -3 20 -46 38 -94z m-4170 -593 c358 -106 895 -275 922 -290 3 -2 -4 -40 -17 -84 -47 -163 -58 -252 -58 -470 0 -154 4 -230 18 -305 31 -172 88 -350 173 -542 4 -9 -7 -13 -36 -13 -148 0 -510 -53 -718 -106 l-142 -35 -33 37 c-243 275 -429 633 -499 964 -30 142 -33 422 -6 550 28 133 114 370 133 370 4 0 122 -34 263 -76z m6796 -239 c152 -178 288 -409 353 -600 37 -107 68 -258 77 -374 7 -78 6 -83 -11 -78 -331 95 -721 213 -1069 325 l-150 48 -8 44 c-42 226 -77 355 -136 497 l-28 69 121 13 c238 25 562 89 706 139 30 11 58 17 62 13 3 -3 41 -46 83 -96z m-1132 -177 c19 -51 44 -124 56 -162 22 -71 62 -258 57 -263 -3 -3 -466 157 -751 260 -348 126 -430 158 -442 174 -7 9 -13 29 -13 44 l0 28 303 -5 c166 -3 385 -1 487 4 102 5 204 10 226 10 l41 2 36 -92z m-4048 -112 c72 -26 246 -90 389 -144 l258 -97 -6 -60 c-23 -243 -28 -417 -17 -599 6 -105 14 -209 17 -231 l6 -40 -134 6 c-73 4 -303 7 -510 8 l-378 1 -20 40 c-42 82 -110 260 -138 361 -51 181 -66 287 -66 474 1 175 9 233 55 392 l21 71 197 -68 c108 -37 255 -89 326 -114z m1095 -421 c246 -101 562 -235 569 -241 4 -3 -69 -586 -74 -592 -1 -1 -107 9 -236 22 -129 14 -297 30 -374 37 -77 6 -141 12 -142 13 -2 1 -7 54 -13 117 -14 164 -12 432 5 594 8 77 15 141 15 143 0 8 41 -7 250 -93z m5030 -225 c298 -85 518 -132 728 -156 34 -3 62 -9 62 -13 0 -3 -76 -46 -169 -96 l-169 -90 -6 -44 c-3 -24 -6 -65 -6 -91 l0 -48 280 -104 c154 -56 280 -106 280 -109 0 -9 -149 -37 -262 -49 -124 -14 -226 -3 -493 51 -296 61 -295 61 -295 73 0 7 20 99 45 205 25 107 44 196 42 198 -3 2 -78 24 -167 48 -89 24 -163 45 -164 47 -2 1 -8 56 -15 120 -6 64 -14 124 -17 133 -3 8 -2 15 2 15 5 0 150 -40 324 -90z m-3710 -310 c113 -40 206 -74 208 -76 5 -3 -62 -224 -92 -304 -21 -57 -27 -65 -48 -62 -12 1 -122 20 -243 41 -121 22 -277 47 -347 57 -71 10 -128 23 -128 29 -1 5 14 129 31 275 l33 265 190 -76 c105 -42 283 -109 396 -149z m900 -298 c228 -72 454 -142 502 -157 l88 -26 -41 -62 c-23 -34 -69 -98 -102 -143 l-61 -81 -160 53 c-185 60 -431 129 -638 177 -79 19 -143 38 -143 43 0 5 22 77 49 159 26 83 50 156 52 164 2 7 12 11 22 8 9 -2 204 -63 432 -135z m-2786 -92 c93 -5 141 -12 146 -21 5 -7 11 -32 15 -56 20 -138 115 -459 197 -670 l39 -103 -86 -85 c-47 -47 -88 -85 -91 -85 -3 0 -39 23 -80 51 -226 152 -544 447 -717 664 -85 107 -191 255 -217 304 l-12 24 333 -7 c184 -4 396 -11 473 -16z m-966 -80 c66 -111 183 -273 293 -405 116 -139 379 -399 537 -529 72 -60 130 -111 127 -114 -7 -8 -355 108 -521 174 -485 191 -920 456 -1257 766 -63 57 -85 83 -75 88 19 11 215 47 343 64 94 12 198 22 410 39 96 8 86 14 143 -83z m1462 45 c118 -10 534 -56 538 -60 4 -4 -66 -529 -74 -557 -4 -13 -16 -18 -43 -18 -73 0 -216 -31 -301 -65 -46 -19 -86 -32 -88 -30 -2 2 -21 54 -43 117 -49 138 -112 375 -138 521 l-19 109 47 -6 c25 -3 80 -8 121 -11z m989 -121 c238 -37 398 -66 411 -74 13 -8 -80 -211 -170 -372 -70 -123 -171 -278 -183 -278 -5 0 -26 14 -47 30 -58 46 -196 116 -277 140 -58 18 -73 26 -73 41 0 11 14 135 30 276 17 140 30 260 30 265 0 13 60 6 279 -28z m2627 -160 c280 -86 511 -158 514 -161 9 -9 -210 -212 -316 -291 -155 -117 -141 -113 -213 -58 -129 99 -370 230 -601 326 -58 24 -107 45 -109 46 -2 2 30 47 71 101 40 54 87 119 103 145 17 27 33 48 36 48 4 0 235 -70 515 -156z m-1698 -25 c276 -66 593 -159 615 -179 10 -8 -139 -151 -254 -244 -184 -148 -449 -307 -669 -401 -87 -37 -290 -108 -295 -103 -2 2 -14 28 -28 59 -14 31 -41 82 -61 114 -32 49 -35 60 -24 75 192 262 287 411 381 597 72 143 72 143 102 137 17 -3 121 -28 233 -55z m1062 -341 c178 -76 431 -210 508 -269 l24 -18 -131 -65 c-438 -220 -897 -339 -1446 -376 -167 -11 -345 -12 -418 -2 l-48 7 103 44 c416 178 832 439 1101 691 l82 77 65 -24 c36 -14 108 -43 160 -65z m-2535 -110 c-3 -18 -17 -112 -30 -208 -14 -96 -30 -204 -37 -239 l-11 -65 -39 45 c-89 101 -248 351 -248 390 0 30 181 90 310 102 19 2 41 5 48 5 9 2 11 -7 7 -30z m360 -53 c39 -18 96 -52 128 -75 l57 -41 -21 -30 c-67 -94 -253 -268 -356 -333 l-42 -26 4 28 c2 15 17 142 31 284 l27 256 51 -15 c28 -8 83 -30 121 -48z m-798 -235 c34 -72 57 -130 52 -130 -16 0 -239 124 -239 133 0 10 110 127 119 127 3 0 34 -59 68 -130z m1170 -126 c23 -43 42 -82 43 -85 0 -6 -168 -40 -268 -54 l-44 -6 99 106 c54 58 100 110 102 116 7 22 28 -1 68 -77z"/>
 </g>

</svg>